<svg xmlns="http://www.w3.org/2000/svg" xmlns:xlink="http://www.w3.org/1999/xlink" width="1200" height="1200" viewBox="0 0 1200 1200"><g transform="translate(600 600) scale(0.69 0.69) rotate(90) translate(-600 -600)" style="fill:#000000"><svg fill="#000000" xmlns:dc="http://purl.org/dc/elements/1.1/" xmlns:cc="http://creativecommons.org/ns#" xmlns:rdf="http://www.w3.org/1999/02/22-rdf-syntax-ns#" xmlns:svg="http://www.w3.org/2000/svg" xmlns="http://www.w3.org/2000/svg" xmlns:sodipodi="http://sodipodi.sourceforge.net/DTD/sodipodi-0.dtd" xmlns:inkscape="http://www.inkscape.org/namespaces/inkscape" viewBox="0 0 26.458333 26.458334" version="1.1" x="0px" y="0px"><g transform="translate(0,-270.54165)"><path d="m 10.840245,272.1292 c -0.10562,0.003 -0.199254,0.0687 -0.238226,0.1669 l -8.995578,22.75417 c -0.069002,0.17375 0.059054,0.36229 0.2459775,0.36227 h 8.9955785 c 0.146126,-3e-5 0.264551,-0.11846 0.264578,-0.26459 v -22.75469 c -2.39e-4,-0.14899 -0.123399,-0.26839 -0.27233,-0.26406 z m 2.384794,0 c -0.145914,0.003 -0.26246,0.12227 -0.26045,0.26821 v 22.74642 c -0.0048,0.35763 0.534023,0.35763 0.529155,0 v -22.74642 c 0.0026,-0.14917 -0.119536,-0.27053 -0.268705,-0.26821 z m 2.383737,0 c -0.145306,0 -0.262725,0.11875 -0.263016,0.26406 v 22.75469 c 2.6e-5,0.14613 0.118451,0.26456 0.264577,0.26459 h 8.995578 c 0.186924,2e-5 0.314979,-0.18852 0.245978,-0.36227 L 15.856314,272.2961 c -0.04024,-0.10131 -0.138532,-0.16756 -0.247538,-0.1669 z m 0.266139,1.65312 8.341886,21.10105 h -8.341886 z" style="color:#000000;font-style:normal;font-variant:normal;font-weight:normal;font-stretch:normal;font-size:medium;line-height:normal;font-family:sans-serif;font-variant-ligatures:normal;font-variant-position:normal;font-variant-caps:normal;font-variant-numeric:normal;font-variant-alternates:normal;font-feature-settings:normal;text-indent:0;text-align:start;text-decoration:none;text-decoration-line:none;text-decoration-style:solid;text-decoration-color:#000000;letter-spacing:normal;word-spacing:normal;text-transform:none;writing-mode:lr-tb;direction:ltr;text-orientation:mixed;dominant-baseline:auto;baseline-shift:baseline;text-anchor:start;white-space:normal;shape-padding:0;clip-rule:nonzero;display:inline;overflow:visible;visibility:visible;opacity:1;isolation:auto;mix-blend-mode:normal;color-interpolation:sRGB;color-interpolation-filters:linearRGB;solid-color:#000000;solid-opacity:1;vector-effect:none;fill:#555555;fill-opacity:1;fill-rule:evenodd;stroke:none;stroke-width:0.52916658;stroke-linecap:round;stroke-linejoin:round;stroke-miterlimit:4;stroke-dasharray:none;stroke-dashoffset:0;stroke-opacity:1;color-rendering:auto;image-rendering:auto;shape-rendering:auto;text-rendering:auto;enable-background:accumulate"></path></g></svg></g></svg>